<svg width="34" height="34" viewBox="0 0 34 34" fill="none" xmlns="http://www.w3.org/2000/svg">
<path d="M1.06231 29.756C0.786991 29.756 0.514441 29.6489 0.311066 29.4451C-0.00713928 29.1273 -0.0901493 28.6443 0.103541 28.2388L3.64392 20.8091C1.14117 16.391 1.2477 10.8495 3.96213 6.52877C6.78309 2.04016 11.9989 -0.492589 17.288 0.0801462C22.5633 0.651499 27.1289 4.24335 28.9191 9.23147C29.117 9.78278 28.8292 10.3908 28.2772 10.5883C27.7265 10.7832 27.1164 10.4985 26.9186 9.94721C25.4009 5.71906 21.5312 2.67438 17.0584 2.19008C12.5869 1.7037 8.15275 3.85163 5.76345 7.65627C3.37276 11.4609 3.36722 16.3813 5.74823 20.1922C5.94054 20.4989 5.96267 20.8831 5.80634 21.2098L3.30773 26.4515L8.55674 23.9561C8.88324 23.7999 9.26509 23.822 9.575 24.0134C10.9267 24.8542 12.407 25.4055 13.9787 25.6529C14.5584 25.7441 14.9541 26.2871 14.8627 26.866C14.77 27.445 14.2319 27.8415 13.6466 27.749C11.9878 27.4878 10.4134 26.9393 8.95795 26.1157L1.51886 29.653C1.3736 29.7221 1.21726 29.756 1.06231 29.756Z" fill="white"/>
<path d="M20.1878 10.6541H9.56253C8.97592 10.6541 8.5 10.1788 8.5 9.59292C8.5 9.00706 8.97592 8.53174 9.56253 8.53174H20.1878C20.7744 8.53174 21.2504 9.00706 21.2504 9.59292C21.2504 10.1788 20.7744 10.6541 20.1878 10.6541Z" fill="white"/>
<path d="M13.8126 17.021H9.56253C8.97592 17.021 8.5 16.5457 8.5 15.9599C8.5 15.374 8.97592 14.8987 9.56253 14.8987H13.8126C14.3993 14.8987 14.8752 15.374 14.8752 15.9599C14.8752 16.5457 14.3993 17.021 13.8126 17.021Z" fill="white"/>
<path d="M31.9877 33.9999C31.794 33.9999 31.6017 33.9474 31.4301 33.8417L26.8286 31.0084C23.7434 31.548 20.5337 30.3527 18.5622 27.887C16.4966 25.3066 16.0885 21.7154 17.5232 18.7378C18.9593 15.7608 22.0223 13.8374 25.3289 13.8374C25.3413 13.8374 25.3552 13.8374 25.3676 13.8374C28.7517 13.8374 31.8355 15.8216 33.2328 18.9015C34.5624 21.8343 34.1363 25.2596 32.1675 27.773L33.035 32.757C33.1056 33.1688 32.9299 33.5833 32.584 33.8175C32.4041 33.9391 32.1952 33.9999 31.9877 33.9999ZM27.0292 28.8245C27.2243 28.8245 27.418 28.8784 27.5868 28.9821L30.5378 30.7991L29.9899 27.6535C29.9346 27.3357 30.0273 27.0096 30.2417 26.7685C31.9393 24.8527 32.3543 22.1085 31.2959 19.7775C30.2431 17.4555 27.9188 15.9598 25.3676 15.9598C25.3552 15.9598 25.3372 15.9584 25.333 15.9598H25.3289C22.8331 15.9598 20.5212 17.4113 19.4379 19.658C18.356 21.9047 18.6632 24.615 20.2224 26.5626C21.7816 28.513 24.3674 29.4097 26.7913 28.8515C26.8701 28.8335 26.9504 28.8245 27.0292 28.8245ZM25.333 14.8986H25.3469H25.333Z" fill="white"/>
<path d="M27.6255 21.2659H23.3754C22.7888 21.2659 22.3129 20.7906 22.3129 20.2047C22.3129 19.6189 22.7888 19.1436 23.3754 19.1436H27.6255C28.2121 19.1436 28.688 19.6189 28.688 20.2047C28.688 20.7906 28.2121 21.2659 27.6255 21.2659Z" fill="white"/>
<path d="M27.6255 25.5105H23.3754C22.7888 25.5105 22.3129 25.0352 22.3129 24.4494C22.3129 23.8635 22.7888 23.3882 23.3754 23.3882H27.6255C28.2121 23.3882 28.688 23.8635 28.688 24.4494C28.688 25.0352 28.2121 25.5105 27.6255 25.5105Z" fill="white"/>
</svg>
