<svg width="36" height="35" viewBox="0 0 36 35" fill="none" xmlns="http://www.w3.org/2000/svg">
<path d="M34.8748 34.9999H1.12497C0.503893 34.9999 0 34.4909 0 33.8636C0 33.2363 0.503893 32.7273 1.12497 32.7273H34.8748C35.4959 32.7273 35.9998 33.2363 35.9998 33.8636C35.9998 34.4909 35.4959 34.9999 34.8748 34.9999Z" fill="white"/>
<path d="M10.1247 35.0001H3.37485C2.75377 35.0001 2.24988 34.4911 2.24988 33.8638V26.2277C2.24988 24.9997 3.25913 24.001 4.49982 24.001H8.9997C10.2404 24.001 11.2504 24.9997 11.2504 26.2277V33.8638C11.2504 34.4911 10.7465 35.0001 10.1247 35.0001ZM4.49982 32.7275H8.9997V26.2736H4.49982V32.7275Z" fill="white"/>
<path d="M21.3752 35H14.6253C14.0043 35 13.5004 34.491 13.5004 33.8637V15.3188C13.5004 14.0907 14.5096 13.092 15.7503 13.092H20.2502C21.4909 13.092 22.5001 14.0907 22.5001 15.3188V33.8637C22.5001 34.491 21.9962 35 21.3752 35ZM15.7503 32.7274H20.2502V15.3647H15.7503V32.7274Z" fill="white"/>
<path d="M32.6249 35H25.8751C25.254 35 24.7501 34.4911 24.7501 33.8637V19.6821C24.7501 18.454 25.7594 17.4553 27.0001 17.4553H31.4999C32.7406 17.4553 33.7499 18.454 33.7499 19.6821V33.8637C33.7499 34.4911 33.246 35 32.6249 35ZM27.0001 32.7274H31.4999V19.7279H27.0001V32.7274Z" fill="white"/>
<path d="M34.8748 8.81896C34.2537 8.81896 33.7498 8.30999 33.7498 7.68265V2.27335H28.125C27.5039 2.27335 27 1.76438 27 1.13704C27 0.509704 27.5039 0.000732422 28.125 0.000732422H34.8748C35.4959 0.000732422 35.9998 0.509704 35.9998 1.13704V7.68265C35.9998 8.30999 35.4959 8.81896 34.8748 8.81896Z" fill="white"/>
<path d="M3.37496 17.55C3.0798 17.55 2.78391 17.4331 2.56346 17.2008C2.13281 16.748 2.14745 16.029 2.59568 15.594L11.3442 7.11161C12.4721 6.01673 14.123 5.5847 15.661 5.9827L24.2243 8.20205C25.0665 8.4521 25.9307 8.23608 26.5196 7.66349L34.0956 0.317434C34.5438 -0.119039 35.2542 -0.102764 35.6863 0.349984C36.117 0.802732 36.1023 1.5218 35.6541 1.9568L28.0781 9.30285C26.9122 10.4347 25.2071 10.8534 23.6325 10.3948L15.1014 8.1843C14.3148 7.98456 13.4741 8.1991 12.9028 8.75098L4.15424 17.2333C3.93598 17.4449 3.65547 17.55 3.37496 17.55Z" fill="white"/>
</svg>
