<svg width="215" height="33" viewBox="0 0 215 33" fill="none" xmlns="http://www.w3.org/2000/svg">
<path d="M10.5923 16.2H19.0427C20.3278 16.2 21.4117 15.7846 22.2944 14.9538C23.1901 14.123 23.6379 12.9418 23.6379 11.4101C23.6379 10.2807 23.1706 9.26825 22.236 8.37258C21.3014 7.46393 20.237 7.0096 19.0427 7.0096H7.0096V32.2442H5.60768V5.60768H19.0427C20.6264 5.60768 22.0218 6.1983 23.229 7.37955C24.4362 8.54782 25.0398 9.89132 25.0398 11.4101C25.0398 13.2793 24.4557 14.7786 23.2874 15.9079C22.1192 17.0372 20.7043 17.6019 19.0427 17.6019H10.5923V16.2ZM10.5923 19.0038H19.0427C21.0677 19.0038 22.8072 18.2964 24.261 16.8815C25.7148 15.4536 26.4418 13.6298 26.4418 11.4101C26.4418 9.5019 25.6954 7.82739 24.2026 6.38652C22.7228 4.93268 21.0028 4.20576 19.0427 4.20576H4.20576V32.2442H2.80384V2.80384H19.0427C20.5875 2.80384 22.0348 3.19975 23.3848 3.99158C24.7478 4.7834 25.8317 5.84782 26.6365 7.18484C27.4413 8.50888 27.8437 9.91729 27.8437 11.4101C27.8437 13.9673 26.974 16.1091 25.2346 17.8355C23.5081 19.549 21.4442 20.4057 19.0427 20.4057H10.5923V19.0038ZM10.5923 21.8076H19.0427C20.8601 21.8076 22.5475 21.3598 24.1052 20.4641C25.6629 19.5685 26.9091 18.3223 27.8437 16.7257C28.7783 15.1161 29.2456 13.3442 29.2456 11.4101C29.2456 9.65767 28.7783 8.01561 27.8437 6.48388C26.9221 4.93917 25.6759 3.706 24.1052 2.78437C22.5346 1.86274 20.8471 1.40192 19.0427 1.40192H1.40192V32.2442H0V0H19.0427C21.0807 0 22.9954 0.52572 24.7867 1.57716C26.5781 2.61562 27.9995 4.01754 29.0509 5.78292C30.1153 7.53532 30.6475 9.41104 30.6475 11.4101C30.6475 13.7206 30.1478 15.7521 29.1483 17.5045C28.1617 19.2569 26.8182 20.6264 25.1177 21.6129L28.7394 32.2442H27.2596L23.7937 22.275C23.2745 22.4826 22.8786 22.6254 22.606 22.7033L25.8576 32.2442H24.3778L21.204 23.0343C21.0872 23.0603 20.6718 23.1057 19.9579 23.1706L22.9759 32.2442H21.4961L18.517 23.2096H17.2514L20.0942 32.2442H18.6144L15.7521 23.2096H10.5923V21.8076ZM9.81344 32.2442H8.41152V8.41152H19.0427C19.9125 8.41152 20.6588 8.71008 21.2819 9.30719C21.918 9.89132 22.236 10.5923 22.236 11.4101C22.236 13.6687 21.1716 14.798 19.0427 14.798H10.5923V13.3961H19.0427C19.6009 13.3961 20.0358 13.2533 20.3473 12.9678C20.6718 12.6692 20.8341 12.15 20.8341 11.4101C20.8341 10.9557 20.6588 10.5793 20.3084 10.2807C19.9709 9.96921 19.549 9.81344 19.0427 9.81344H9.81344V32.2442Z" fill="white"/>
<path d="M40.6557 32.2442H39.2538V0H40.6557V32.2442ZM37.8518 32.2442H36.4499V0H37.8518V32.2442ZM35.048 32.2442H33.6461V0H35.048V32.2442ZM43.4595 25.2346H58.3744V26.6365H43.4595V28.0384H58.3744V29.4403H43.4595V30.8422H58.3744V32.2442H42.0576V0H58.3744V1.40192H43.4595V2.80384H58.3744V4.20576H43.4595V5.60768H58.3744V7.0096H43.4595V12.6173H51.1117V14.0192H43.4595V15.4211H51.1117V16.823H43.4595V18.225H51.1117V19.6269H43.4595V25.2346Z" fill="white"/>
<path d="M86.218 21.0093C86.218 20.5031 86.0623 20.1656 85.7507 19.9968C85.4522 19.8281 85.0108 19.7437 84.4267 19.7437H75.3921V18.3418H84.4267C86.5555 18.3418 87.6199 19.231 87.6199 21.0093C87.6199 22.0088 87.3279 22.7293 86.7437 23.1706C86.1596 23.612 85.3873 23.8326 84.4267 23.8326H75.3921V22.4307H84.4267C85.6209 22.4307 86.218 21.9569 86.218 21.0093ZM74.6132 32.2442H73.2113V8.41152H84.4267C85.3094 8.41152 86.0623 8.68412 86.6853 9.22931C87.3084 9.76152 87.6199 10.43 87.6199 11.2348C87.6199 12.2993 87.3279 13.0716 86.7437 13.5519C86.1596 14.0192 85.3873 14.2529 84.4267 14.2529H75.3921V12.8509H84.4267C85.6209 12.8509 86.218 12.3122 86.218 11.2348C86.218 10.7935 86.0493 10.4495 85.7118 10.2029C85.3743 9.94325 84.9459 9.81344 84.4267 9.81344H74.6132V32.2442ZM75.3921 15.6548H84.4267C85.7118 15.6548 86.7957 15.2718 87.6784 14.506C88.574 13.7271 89.0219 12.6368 89.0219 11.2348C89.0219 10.1055 88.5546 9.11897 87.6199 8.27522C86.6983 7.43147 85.6339 7.0096 84.4267 7.0096H71.8094V32.2442H70.4075V5.60768H84.4267C86.0233 5.60768 87.4187 6.17234 88.613 7.30167C89.8202 8.41801 90.4238 9.72906 90.4238 11.2348C90.4238 12.4161 90.1447 13.448 89.5865 14.3307C89.0413 15.2134 88.3014 15.8949 87.3668 16.3752C89.4048 17.1021 90.4238 18.5819 90.4238 20.8146C90.4238 22.58 89.8397 23.9949 88.6714 25.0593C87.5031 26.1108 86.0882 26.6365 84.4267 26.6365H75.3921V25.2346H84.4267C85.7118 25.2346 86.7957 24.8516 87.6784 24.0858C88.574 23.3069 89.0219 22.2165 89.0219 20.8146C89.0219 19.867 88.6844 19.0298 88.0094 18.3028C87.3344 17.5759 86.3413 17.154 85.0303 17.0372C84.9005 17.0502 84.6993 17.0567 84.4267 17.0567H75.3921V15.6548ZM93.2276 11.2348C93.2276 13.0521 92.5851 14.6942 91.3 16.161C92.5851 17.5889 93.2276 19.1401 93.2276 20.8146C93.2276 22.4372 92.8187 23.917 92.0009 25.254C91.1961 26.5781 90.1187 27.61 88.7687 28.3499C87.4317 29.0769 85.9844 29.4403 84.4267 29.4403H75.3921V28.0384H84.4267C86.4517 28.0384 88.1911 27.3634 89.6449 26.0134C91.0988 24.6504 91.8257 22.9175 91.8257 20.8146C91.8257 20.0617 91.631 19.231 91.2416 18.3223C90.8651 17.4007 90.3394 16.6997 89.6644 16.2194C91.1053 14.8694 91.8257 13.2079 91.8257 11.2348C91.8257 9.33964 91.0858 7.69758 89.606 6.30864C88.1262 4.90672 86.3998 4.20576 84.4267 4.20576H69.0056V32.2442H67.6036V2.80384H84.4267C85.9714 2.80384 87.4187 3.18677 88.7687 3.95264C90.1317 4.70552 91.2156 5.73749 92.0204 7.04854C92.8252 8.34662 93.2276 9.74205 93.2276 11.2348ZM92.8966 16.2389C94.0519 14.6942 94.6295 13.0262 94.6295 11.2348C94.6295 9.48243 94.1622 7.85335 93.2276 6.34758C92.306 4.82884 91.0598 3.62812 89.4892 2.74543C87.9185 1.84976 86.231 1.40192 84.4267 1.40192H66.2017V32.2442H64.7998V0H84.4267C86.4776 0 88.3923 0.506249 90.1707 1.51875C91.962 2.53124 93.3834 3.9072 94.4348 5.64662C95.4993 7.37306 96.0315 9.2358 96.0315 11.2348C96.0315 13.143 95.4928 14.8175 94.4154 16.2584C95.4928 17.7512 96.0315 19.2699 96.0315 20.8146C96.0315 22.554 95.7199 24.1507 95.0969 25.6045C94.4738 27.0454 93.63 28.2461 92.5656 29.2067C91.5142 30.1672 90.2875 30.9136 88.8856 31.4458C87.4836 31.9781 85.9974 32.2442 84.4267 32.2442H75.3921V30.8422H84.4267C85.7897 30.8422 87.0942 30.5891 88.3404 30.0829C89.5865 29.5636 90.6704 28.8627 91.5921 27.98C92.5137 27.0973 93.2471 26.0329 93.7923 24.7867C94.3505 23.5406 94.6295 22.2165 94.6295 20.8146C94.6295 20.1915 94.4803 19.4451 94.1817 18.5754C93.8961 17.6927 93.4678 16.9139 92.8966 16.2389Z" fill="white"/>
<path d="M109.778 16.2H118.229C119.514 16.2 120.598 15.7846 121.48 14.9538C122.376 14.123 122.824 12.9418 122.824 11.4101C122.824 10.2807 122.356 9.26825 121.422 8.37258C120.487 7.46393 119.423 7.0096 118.229 7.0096H106.195V32.2442H104.793V5.60768H118.229C119.812 5.60768 121.208 6.1983 122.415 7.37955C123.622 8.54782 124.226 9.89132 124.226 11.4101C124.226 13.2793 123.642 14.7786 122.473 15.9079C121.305 17.0372 119.89 17.6019 118.229 17.6019H109.778V16.2ZM109.778 19.0038H118.229C120.254 19.0038 121.993 18.2964 123.447 16.8815C124.901 15.4536 125.628 13.6298 125.628 11.4101C125.628 9.5019 124.881 7.82739 123.388 6.38652C121.909 4.93268 120.189 4.20576 118.229 4.20576H103.392V32.2442H101.99V2.80384H118.229C119.773 2.80384 121.221 3.19975 122.571 3.99158C123.934 4.7834 125.017 5.84782 125.822 7.18484C126.627 8.50888 127.029 9.91729 127.029 11.4101C127.029 13.9673 126.16 16.1091 124.42 17.8355C122.694 19.549 120.63 20.4057 118.229 20.4057H109.778V19.0038ZM109.778 21.8076H118.229C120.046 21.8076 121.733 21.3598 123.291 20.4641C124.849 19.5685 126.095 18.3223 127.029 16.7257C127.964 15.1161 128.431 13.3442 128.431 11.4101C128.431 9.65767 127.964 8.01561 127.029 6.48388C126.108 4.93917 124.862 3.706 123.291 2.78437C121.72 1.86274 120.033 1.40192 118.229 1.40192H100.588V32.2442H99.1858V0H118.229C120.267 0 122.181 0.52572 123.973 1.57716C125.764 2.61562 127.185 4.01754 128.237 5.78292C129.301 7.53532 129.833 9.41104 129.833 11.4101C129.833 13.7206 129.334 15.7521 128.334 17.5045C127.348 19.2569 126.004 20.6264 124.304 21.6129L127.925 32.2442H126.445L122.979 22.275C122.46 22.4826 122.064 22.6254 121.792 22.7033L125.043 32.2442H123.564L120.39 23.0343C120.273 23.0603 119.858 23.1057 119.144 23.1706L122.162 32.2442H120.682L117.703 23.2096H116.437L119.28 32.2442H117.8L114.938 23.2096H109.778V21.8076ZM108.999 32.2442H107.597V8.41152H118.229C119.098 8.41152 119.845 8.71008 120.468 9.30719C121.104 9.89132 121.422 10.5923 121.422 11.4101C121.422 13.6687 120.357 14.798 118.229 14.798H109.778V13.3961H118.229C118.787 13.3961 119.222 13.2533 119.533 12.9678C119.858 12.6692 120.02 12.15 120.02 11.4101C120.02 10.9557 119.845 10.5793 119.494 10.2807C119.157 9.96921 118.735 9.81344 118.229 9.81344H108.999V32.2442Z" fill="white"/>
<path d="M146.754 22.7812L147.318 21.3793H152.108L152.673 22.7812H146.754ZM145.663 25.585L146.209 24.1831H153.199L153.802 25.585H145.663ZM144.573 28.3889L145.118 26.987H154.309L154.893 28.3889H144.573ZM133.182 32.2442H131.664L144.417 0H145.936L158.67 32.2442H157.171L145.177 1.8887L133.182 32.2442ZM145.352 5.21826L146.15 7.0096L136.181 32.2442H134.682L145.352 5.21826ZM146.909 8.91777L147.649 10.8454L139.218 32.2442H137.7L146.909 8.91777ZM148.389 12.773L149.129 14.7396L142.217 32.2442H140.718L148.389 12.773ZM167.724 32.2442H166.205L153.471 0H154.971L167.724 32.2442ZM151.952 0L164.706 32.2442H163.207L150.453 0H151.952ZM148.934 0L161.688 32.2442H160.169L147.435 0H148.934Z" fill="white"/>
<path d="M178.589 0H179.991V32.2442H178.589V0ZM175.785 0H177.187V32.2442H175.785V0ZM172.981 0H174.383V32.2442H172.981V0ZM170.177 0H171.579V32.2442H170.177V0Z" fill="white"/>
<path d="M206.588 16.7257L205.187 14.4086V0H206.588V16.7257ZM209.392 21.3209L207.99 18.9649V0H209.392V21.3209ZM212.196 25.9745L210.794 23.599V0H212.196V25.9745ZM192.102 15.5185L193.504 17.8355V32.2442H192.102V15.5185ZM189.298 10.9233L190.7 13.2793V32.2442H189.298V10.9233ZM186.494 6.2697L187.896 8.64517V32.2442H186.494V6.2697ZM186.981 0H188.617L208.438 32.2442H206.803L186.981 0ZM190.291 0H191.946L211.748 32.2442H210.074L190.291 0ZM193.582 0H195.217L213.598 29.966V0H215V32.2442C215 32.2442 214.448 32.2442 213.345 32.2442L193.582 0ZM185.092 2.27812V32.2442H183.69V0C183.69 0 184.249 0 185.365 0L205.128 32.2442H203.512L185.092 2.27812Z" fill="white"/>
</svg>
