<svg width="34" height="34" viewBox="0 0 34 34" fill="none" xmlns="http://www.w3.org/2000/svg">
<path d="M15.9431 34C15.6637 34 15.3925 33.89 15.1919 33.6887C14.9401 33.4376 14.8322 33.0772 14.9014 32.7293L15.9639 27.4168C16.0054 27.2107 16.1064 27.0218 16.2544 26.8738L27.0649 16.0648C28.5853 14.5402 31.2817 14.5381 32.8049 16.0655C34.3986 17.6613 34.3959 20.2366 32.8118 21.8172L22.0069 32.6262C21.8589 32.7743 21.6693 32.8759 21.4646 32.9167L16.152 33.9792C16.0829 33.9931 16.0123 34 15.9431 34ZM21.2557 31.875H21.2695H21.2557ZM17.9838 28.1486L17.2976 31.5831L20.7313 30.8962L31.3093 20.3148C31.3093 20.3148 31.3093 20.3141 31.3107 20.3141C32.0647 19.5601 32.0675 18.333 31.3135 17.5776C30.5623 16.8278 29.2936 16.8402 28.5673 17.5665L17.9838 28.1486Z" fill="white"/>
<path d="M11.6876 29.75H3.18752C1.43051 29.75 0 28.3202 0 26.5625V3.1875C0 1.42981 1.43051 0 3.18752 0H24.4376C26.1946 0 27.6251 1.42981 27.6251 3.1875V12.75C27.6251 13.3366 27.1492 13.8125 26.5626 13.8125C25.976 13.8125 25.5001 13.3366 25.5001 12.75V3.1875C25.5001 2.6016 25.0228 2.125 24.4376 2.125H3.18752C2.60231 2.125 2.12501 2.6016 2.12501 3.1875V26.5625C2.12501 27.1484 2.60231 27.625 3.18752 27.625H11.6876C12.2741 27.625 12.7501 28.1009 12.7501 28.6875C12.7501 29.2741 12.2741 29.75 11.6876 29.75Z" fill="white"/>
<path d="M20.1875 8.5H11.6875C11.1009 8.5 10.625 8.02409 10.625 7.4375C10.625 6.85091 11.1009 6.375 11.6875 6.375H20.1875C20.7741 6.375 21.2501 6.85091 21.2501 7.4375C21.2501 8.02409 20.7741 8.5 20.1875 8.5Z" fill="white"/>
<path d="M20.1876 14.875H7.43751C6.85091 14.875 6.375 14.3991 6.375 13.8125C6.375 13.2259 6.85091 12.75 7.43751 12.75H20.1876C20.7742 12.75 21.2501 13.2259 21.2501 13.8125C21.2501 14.3991 20.7742 14.875 20.1876 14.875Z" fill="white"/>
<path d="M18.0626 21.25H7.43751C6.85091 21.25 6.375 20.7741 6.375 20.1875C6.375 19.6009 6.85091 19.125 7.43751 19.125H18.0626C18.6492 19.125 19.1251 19.6009 19.1251 20.1875C19.1251 20.7741 18.6492 21.25 18.0626 21.25Z" fill="white"/>
</svg>
