<svg width="40" height="31" viewBox="0 0 40 31" fill="none" xmlns="http://www.w3.org/2000/svg">
<path d="M35.6001 23.4001C34.9376 23.4001 34.4001 22.8626 34.4001 22.2001V4.2001C34.4001 3.53838 33.861 3.0001 33.2001 3.0001H6.80007C6.13914 3.0001 5.60007 3.53838 5.60007 4.2001V22.2001C5.60007 22.8626 5.06257 23.4001 4.40007 23.4001C3.73757 23.4001 3.20007 22.8626 3.20007 22.2001V4.2001C3.20007 2.21494 4.8157 0.600098 6.80007 0.600098H33.2001C35.1844 0.600098 36.8001 2.21494 36.8001 4.2001V22.2001C36.8001 22.8626 36.2626 23.4001 35.6001 23.4001Z" fill="white"/>
<path d="M33.2001 30.6H6.80005C3.49224 30.6 0.800049 27.9086 0.800049 24.6V22.2C0.800049 21.5375 1.33755 21 2.00005 21H15.8657C16.2969 21 16.6938 21.2312 16.9079 21.6055C17.5391 22.7117 18.725 23.3992 20 23.3992C21.275 23.3992 22.4594 22.7117 23.0922 21.6039C23.3063 21.2305 23.7032 21 24.1344 21H38C38.6625 21 39.2001 21.5375 39.2001 22.2V24.6C39.2001 27.9086 36.5079 30.6 33.2001 30.6ZM3.20005 23.4V24.6C3.20005 26.5852 4.81567 28.2 6.80005 28.2H33.2001C35.1844 28.2 36.8 26.5852 36.8 24.6V23.4H24.7797C23.6641 24.8953 21.8907 25.7992 20 25.7992C18.1079 25.7992 16.3344 24.8953 15.2204 23.4H3.20005Z" fill="white"/>
<path d="M17.6969 17.4002C17.2548 17.4002 16.8126 17.2853 16.4173 17.0588C15.6782 16.64 15.2094 15.8447 15.2001 14.9877V9.02594C15.2094 8.15719 15.6782 7.36266 16.4219 6.93922C17.1438 6.52281 18.0298 6.48609 18.7891 6.84391C18.7891 6.84469 18.7907 6.84469 18.7907 6.84469L24.3735 9.47984C25.3485 9.90563 26.0001 10.9009 26.0001 12.0002C26.0001 13.0994 25.3485 14.0947 24.3423 14.5345L18.7907 17.1556C18.4438 17.3189 18.0704 17.4002 17.6969 17.4002ZM17.6969 9.00016C17.6688 9.00016 17.6391 9.00797 17.6141 9.02281L17.6001 14.9744L18.2782 16.0705L17.7657 14.9853L23.3485 12.3502C23.5141 12.2775 23.6001 12.1455 23.6001 12.0002C23.6001 11.8548 23.5141 11.7228 23.3798 11.6642L17.7657 9.015C17.7438 9.00484 17.7204 9.00016 17.6969 9.00016Z" fill="white"/>
</svg>
