<svg width="32" height="32" viewBox="0 0 32 32" fill="none" xmlns="http://www.w3.org/2000/svg">
<path d="M29 32H3C1.34635 32 0 30.6536 0 29V5C0 3.34635 1.34635 2 3 2H29C30.6536 2 32 3.34635 32 5V29C32 30.6536 30.6536 32 29 32ZM3 4C2.44922 4 2 4.44922 2 5V29C2 29.5508 2.44922 30 3 30H29C29.5508 30 30 29.5508 30 29V5C30 4.44922 29.5508 4 29 4H3Z" fill="white"/>
<path d="M7 6C6.44792 6 6 5.55208 6 5V1C6 0.447917 6.44792 0 7 0C7.55208 0 8 0.447917 8 1V5C8 5.55208 7.55208 6 7 6Z" fill="white"/>
<path d="M25 6C24.4479 6 24 5.55208 24 5V1C24 0.447917 24.4479 0 25 0C25.5521 0 26 0.447917 26 1V5C26 5.55208 25.5521 6 25 6Z" fill="white"/>
<path d="M23 25H17C16.4479 25 16 24.5521 16 24C16 23.4479 16.4479 23 17 23H23C23.5521 23 24 23.4479 24 24C24 24.5521 23.5521 25 23 25Z" fill="white"/>
<path d="M23 15H17C16.4479 15 16 14.5521 16 14C16 13.4479 16.4479 13 17 13H23C23.5521 13 24 13.4479 24 14C24 14.5521 23.5521 15 23 15Z" fill="white"/>
<path d="M9 27C8.73568 27 8.48047 26.8959 8.29297 26.7071L5.29297 23.7071C4.90234 23.3164 4.90234 22.6836 5.29297 22.293C5.68359 21.9024 6.31641 21.9024 6.70703 22.293L8.89193 24.4779L12.401 19.7995C12.7292 19.3581 13.3568 19.2657 13.8008 19.6003C14.2422 19.931 14.332 20.5586 14 21L9.79948 26.6003C9.6263 26.8321 9.35938 26.9766 9.07031 26.9974C9.04687 26.9987 9.02344 27 9 27Z" fill="white"/>
<path d="M9 16.6004C8.73568 16.6004 8.48047 16.4962 8.29297 16.3074L5.29297 13.3074C4.90234 12.9168 4.90234 12.284 5.29297 11.8934C5.68359 11.5027 6.31641 11.5027 6.70703 11.8934L8.89193 14.0782L12.401 9.39986C12.7292 8.95846 13.3568 8.86601 13.8008 9.20064C14.2422 9.53137 14.332 10.159 14 10.6004L9.79948 16.2006C9.6263 16.4324 9.35938 16.5769 9.07031 16.5978C9.04687 16.5991 9.02344 16.6004 9 16.6004Z" fill="white"/>
</svg>
