<?xml version="1.0" encoding="utf-8"?><svg viewBox="0 0 215 35" xmlns="http://www.w3.org/2000/svg" xmlns:xlink="http://www.w3.org/1999/xlink"><style>:root>svg{display:none}:root>svg:target{display:block}</style><svg fill="none" viewBox="0 0 34 34" id="chat" xmlns="http://www.w3.org/2000/svg"><path d="M1.062 29.756a1.061 1.061 0 01-.958-1.517l3.54-7.43c-2.503-4.418-2.396-9.96.318-14.28C6.783 2.04 12-.493 17.288.08c5.275.571 9.84 4.163 11.631 9.151a1.061 1.061 0 11-2 .716C25.4 5.72 21.53 2.674 17.059 2.19c-4.472-.486-8.906 1.662-11.296 5.466-2.39 3.805-2.396 8.725-.015 12.536.193.307.215.691.058 1.018L3.308 26.45l5.249-2.495a1.062 1.062 0 011.018.057 11.749 11.749 0 004.404 1.64 1.06 1.06 0 11-.332 2.096 13.853 13.853 0 01-4.689-1.633l-7.44 3.537c-.144.07-.3.103-.456.103z" fill="#fff"/><path d="M20.188 10.654H9.563a1.062 1.062 0 110-2.122h10.625a1.062 1.062 0 110 2.122zM13.813 17.021h-4.25a1.062 1.062 0 110-2.122h4.25a1.062 1.062 0 110 2.122zM31.988 34a1.06 1.06 0 01-.558-.158l-4.601-2.834a8.721 8.721 0 01-8.267-3.121 8.683 8.683 0 01-1.039-9.15 8.713 8.713 0 017.806-4.9h.039a8.646 8.646 0 017.865 5.064 8.628 8.628 0 01-1.066 8.872l.868 4.984A1.063 1.063 0 0131.988 34zm-4.959-5.175c.195 0 .389.053.558.157l2.95 1.817-.547-3.145a1.059 1.059 0 01.252-.886 6.5 6.5 0 001.054-6.99 6.515 6.515 0 00-5.928-3.818c-.013 0-.03-.002-.035 0h-.004a6.574 6.574 0 00-5.891 3.698 6.554 6.554 0 00.784 6.905 6.576 6.576 0 006.57 2.289c.078-.018.158-.027.237-.027zm-1.696-13.926h.014-.014z" fill="#fff"/><path d="M27.625 21.266h-4.25a1.062 1.062 0 110-2.122h4.25a1.062 1.062 0 110 2.122zM27.625 25.51h-4.25a1.062 1.062 0 110-2.122h4.25a1.062 1.062 0 110 2.122z" fill="#fff"/></svg><svg fill="none" viewBox="0 0 36 35" id="increase" xmlns="http://www.w3.org/2000/svg"><path d="M34.875 35H1.125A1.131 1.131 0 010 33.864c0-.628.504-1.137 1.125-1.137h33.75c.62 0 1.125.51 1.125 1.137S35.496 35 34.875 35z" fill="#fff"/><path d="M10.125 35h-6.75a1.131 1.131 0 01-1.125-1.136v-7.636C2.25 25 3.26 24 4.5 24H9c1.24 0 2.25.999 2.25 2.227v7.636c0 .627-.504 1.136-1.125 1.136zM4.5 32.727H9v-6.453H4.5v6.453zM21.375 35h-6.75a1.131 1.131 0 01-1.125-1.136V15.319c0-1.228 1.01-2.227 2.25-2.227h4.5c1.24 0 2.25.999 2.25 2.227v18.545c0 .627-.504 1.136-1.125 1.136zm-5.625-2.273h4.5V15.365h-4.5v17.362zM32.625 35h-6.75a1.13 1.13 0 01-1.125-1.136V19.682c0-1.228 1.01-2.227 2.25-2.227h4.5c1.24 0 2.25.999 2.25 2.227v14.182A1.13 1.13 0 0132.625 35zM27 32.727h4.5v-13H27v13zM34.875 8.819a1.131 1.131 0 01-1.125-1.136v-5.41h-5.625A1.131 1.131 0 0127 1.137c0-.627.504-1.136 1.125-1.136h6.75C35.495 0 36 .51 36 1.137v6.546c0 .627-.504 1.136-1.125 1.136z" fill="#fff"/><path d="M3.375 17.55c-.295 0-.591-.117-.812-.35a1.144 1.144 0 01.033-1.606l8.748-8.482a4.577 4.577 0 014.317-1.13l8.563 2.22c.843.25 1.707.034 2.296-.539L34.096.317a1.116 1.116 0 011.59.033c.431.453.416 1.172-.032 1.607l-7.576 7.346a4.562 4.562 0 01-4.445 1.092L15.1 8.185a2.345 2.345 0 00-2.198.566l-8.749 8.482a1.115 1.115 0 01-.779.317z" fill="#fff"/></svg><svg fill="none" viewBox="0 0 215 33" id="logo" xmlns="http://www.w3.org/2000/svg"><path d="M10.592 16.2h8.45c1.286 0 2.37-.415 3.252-1.246.896-.831 1.344-2.012 1.344-3.544 0-1.13-.467-2.142-1.402-3.037-.935-.91-1.999-1.363-3.193-1.363H7.01v25.234H5.608V5.608h13.435c1.583 0 2.979.59 4.186 1.772 1.207 1.168 1.81 2.511 1.81 4.03 0 1.87-.583 3.369-1.752 4.498-1.168 1.13-2.583 1.694-4.244 1.694h-8.45V16.2zm0 2.804h8.45c2.026 0 3.765-.708 5.219-2.123 1.454-1.427 2.18-3.251 2.18-5.47 0-1.91-.746-3.584-2.238-5.024-1.48-1.454-3.2-2.181-5.16-2.181H4.206v28.038H2.804V2.804h16.239a8.44 8.44 0 014.342 1.188 9.021 9.021 0 013.252 3.193c.804 1.324 1.207 2.732 1.207 4.225 0 2.557-.87 4.7-2.61 6.425-1.726 1.714-3.79 2.57-6.191 2.57h-8.45v-1.401zm0 2.804h8.45a9.983 9.983 0 005.063-1.344c1.558-.895 2.804-2.142 3.739-3.738.934-1.61 1.402-3.382 1.402-5.316 0-1.752-.468-3.394-1.402-4.926a10.42 10.42 0 00-3.739-3.7 9.835 9.835 0 00-5.062-1.382H1.402v30.842H0V0h19.043c2.038 0 3.952.526 5.744 1.577a11.723 11.723 0 014.264 4.206c1.064 1.752 1.597 3.628 1.597 5.627 0 2.31-.5 4.342-1.5 6.095-.986 1.752-2.33 3.121-4.03 4.108l3.621 10.631h-1.48l-3.465-9.969c-.52.208-.915.35-1.188.428l3.252 9.541h-1.48l-3.174-9.21c-.117.026-.532.072-1.246.137l3.018 9.073h-1.48l-2.979-9.034h-1.266l2.843 9.034h-1.48l-2.862-9.034h-5.16v-1.402zm-.779 10.436H8.412V8.412h10.63c.87 0 1.617.298 2.24.895.636.584.954 1.285.954 2.103 0 2.259-1.064 3.388-3.193 3.388h-8.45v-1.402h8.45c.558 0 .993-.143 1.304-.428.325-.299.487-.818.487-1.558 0-.454-.175-.83-.526-1.13-.337-.31-.759-.467-1.265-.467h-9.23v22.431zM40.656 32.244h-1.402V0h1.402v32.244zm-2.804 0H36.45V0h1.402v32.244zm-2.804 0h-1.402V0h1.402v32.244zm8.411-7.01h14.915v1.402H43.46v1.402h14.915v1.402H43.46v1.402h14.915v1.402H42.058V0h16.316v1.402H43.46v1.402h14.915v1.402H43.46v1.402h14.915V7.01H43.46v5.607h7.653v1.402h-7.653v1.402h7.653v1.402h-7.653v1.402h7.653v1.402h-7.653v5.608zM86.218 21.01c0-.507-.156-.844-.467-1.013-.299-.169-.74-.253-1.324-.253h-9.035v-1.402h9.035c2.128 0 3.193.889 3.193 2.667 0 1-.292 1.72-.876 2.162-.584.441-1.357.662-2.317.662h-9.035V22.43h9.035c1.194 0 1.791-.474 1.791-1.422zM74.613 32.243h-1.402V8.412h11.216c.882 0 1.635.272 2.258.817.623.533.935 1.201.935 2.006 0 1.064-.292 1.837-.876 2.317-.584.467-1.357.7-2.317.7h-9.035v-1.401h9.035c1.194 0 1.791-.539 1.791-1.616 0-.441-.169-.785-.506-1.032-.338-.26-.766-.39-1.285-.39h-9.814v22.431zm.78-16.59h9.034c1.285 0 2.369-.382 3.251-1.148.896-.779 1.344-1.87 1.344-3.271 0-1.13-.467-2.116-1.402-2.96-.922-.844-1.986-1.265-3.193-1.265H71.809v25.234h-1.401V5.608h14.019c1.596 0 2.992.564 4.186 1.694 1.207 1.116 1.81 2.427 1.81 3.933 0 1.181-.278 2.213-.837 3.096a5.528 5.528 0 01-2.22 2.044c2.039.727 3.058 2.207 3.058 4.44 0 1.765-.584 3.18-1.753 4.244-1.168 1.052-2.583 1.578-4.244 1.578h-9.035v-1.402h9.035c1.285 0 2.369-.383 3.251-1.15.896-.778 1.344-1.869 1.344-3.27 0-.948-.338-1.785-1.013-2.512-.675-.727-1.668-1.149-2.979-1.266-.13.013-.33.02-.603.02h-9.035v-1.402zm17.835-4.42c0 1.818-.643 3.46-1.928 4.927 1.285 1.428 1.928 2.98 1.928 4.654 0 1.622-.41 3.102-1.227 4.439a8.507 8.507 0 01-3.232 3.096 8.945 8.945 0 01-4.342 1.09h-9.035v-1.402h9.035c2.025 0 3.764-.675 5.218-2.025 1.454-1.363 2.18-3.096 2.18-5.198 0-.753-.194-1.584-.583-2.493-.377-.921-.903-1.622-1.578-2.103 1.441-1.35 2.162-3.011 2.162-4.984 0-1.895-.74-3.537-2.22-4.926-1.48-1.402-3.206-2.103-5.18-2.103h-15.42v28.038h-1.402V2.804h16.823c1.544 0 2.992.383 4.342 1.149a8.663 8.663 0 013.251 3.096c.805 1.298 1.208 2.693 1.208 4.186zm-.331 5.005c1.155-1.545 1.732-3.213 1.732-5.004a9.098 9.098 0 00-1.401-4.887 10.06 10.06 0 00-3.739-3.603 10.053 10.053 0 00-5.062-1.343H66.202v30.842H64.8V0h19.627c2.05 0 3.965.506 5.744 1.519a11.517 11.517 0 014.264 4.128c1.064 1.726 1.596 3.589 1.596 5.588 0 1.908-.538 3.583-1.616 5.023 1.078 1.493 1.616 3.012 1.616 4.557 0 1.739-.311 3.336-.934 4.79-.623 1.44-1.467 2.641-2.531 3.602a11.386 11.386 0 01-3.68 2.239 12.455 12.455 0 01-4.46.798h-9.034v-1.402h9.035c1.363 0 2.667-.253 3.913-.76 1.246-.518 2.33-1.22 3.252-2.102.922-.883 1.655-1.947 2.2-3.193a9.606 9.606 0 00.837-3.972c0-.623-.149-1.37-.447-2.24a6.83 6.83 0 00-1.285-2.336zM109.778 16.2h8.451c1.285 0 2.369-.415 3.251-1.246.896-.831 1.344-2.012 1.344-3.544 0-1.13-.468-2.142-1.402-3.037-.935-.91-1.999-1.363-3.193-1.363h-12.034v25.234h-1.402V5.608h13.436c1.583 0 2.979.59 4.186 1.772 1.207 1.168 1.811 2.511 1.811 4.03 0 1.87-.584 3.369-1.753 4.498-1.168 1.13-2.583 1.694-4.244 1.694h-8.451V16.2zm0 2.804h8.451c2.025 0 3.764-.708 5.218-2.123 1.454-1.427 2.181-3.251 2.181-5.47 0-1.91-.747-3.584-2.24-5.024-1.479-1.454-3.199-2.181-5.159-2.181h-14.837v28.038h-1.402V2.804h16.239a8.44 8.44 0 014.342 1.188 9.02 9.02 0 013.251 3.193c.805 1.324 1.207 2.732 1.207 4.225 0 2.557-.869 4.7-2.609 6.425-1.726 1.714-3.79 2.57-6.191 2.57h-8.451v-1.401zm0 2.804h8.451a9.983 9.983 0 005.062-1.344c1.558-.895 2.804-2.142 3.738-3.738.935-1.61 1.402-3.382 1.402-5.316 0-1.752-.467-3.394-1.402-4.926a10.412 10.412 0 00-3.738-3.7 9.835 9.835 0 00-5.062-1.382h-17.641v30.842h-1.402V0h19.043c2.038 0 3.952.526 5.744 1.577a11.73 11.73 0 014.264 4.206c1.064 1.752 1.596 3.628 1.596 5.627 0 2.31-.499 4.342-1.499 6.095-.986 1.752-2.33 3.121-4.03 4.108l3.621 10.631h-1.48l-3.466-9.969c-.519.208-.915.35-1.187.428l3.251 9.541h-1.479l-3.174-9.21c-.117.026-.532.072-1.246.137l3.018 9.073h-1.48l-2.979-9.034h-1.266l2.843 9.034h-1.48l-2.862-9.034h-5.16v-1.402zm-.779 10.436h-1.402V8.412h10.632c.869 0 1.616.298 2.239.895.636.584.954 1.285.954 2.103 0 2.259-1.065 3.388-3.193 3.388h-8.451v-1.402h8.451c.558 0 .993-.143 1.304-.428.325-.299.487-.818.487-1.558 0-.454-.175-.83-.526-1.13-.337-.31-.759-.467-1.265-.467h-9.23v22.431zM146.754 22.781l.564-1.402h4.79l.565 1.402h-5.919zm-1.091 2.804l.546-1.402h6.99l.603 1.402h-8.139zm-1.09 2.804l.545-1.402h9.191l.584 1.402h-10.32zm-11.391 3.855h-1.518L144.417 0h1.519l12.734 32.244h-1.499L145.177 1.89l-11.995 30.355zm12.17-27.026l.798 1.792-9.969 25.234h-1.499l10.67-27.026zm1.557 3.7l.74 1.927-8.431 21.4H137.7l9.209-23.327zm1.48 3.855l.74 1.967-6.912 17.504h-1.499l7.671-19.471zm19.335 19.471h-1.519L153.471 0h1.5l12.753 32.244zM151.952 0l12.754 32.244h-1.499L150.453 0h1.499zm-3.018 0l12.754 32.244h-1.519L147.435 0h1.499zM178.589 0h1.402v32.244h-1.402V0zm-2.804 0h1.402v32.244h-1.402V0zm-2.804 0h1.402v32.244h-1.402V0zm-2.804 0h1.402v32.244h-1.402V0zM206.588 16.726l-1.401-2.317V0h1.401v16.726zm2.804 4.595l-1.402-2.356V0h1.402v21.32zm2.804 4.653l-1.402-2.375V0h1.402v25.974zm-20.094-10.456l1.402 2.317v14.41h-1.402V15.518zm-2.804-4.595l1.402 2.356v18.965h-1.402v-21.32zm-2.804-4.653l1.402 2.375v23.6h-1.402V6.27zm.487-6.27h1.636l19.821 32.244h-1.635L186.981 0zm3.31 0h1.655l19.802 32.244h-1.674L190.291 0zm3.291 0h1.635l18.381 29.966V0H215v32.244h-1.655L193.582 0zm-8.49 2.278v29.966h-1.402V0h1.675l19.763 32.244h-1.616l-18.42-29.966z" fill="#fff"/></svg><svg fill="none" viewBox="0 0 32 32" id="notes" xmlns="http://www.w3.org/2000/svg"><path d="M29 32H3c-1.654 0-3-1.346-3-3V5c0-1.654 1.346-3 3-3h26c1.654 0 3 1.346 3 3v24c0 1.654-1.346 3-3 3zM3 4c-.55 0-1 .45-1 1v24c0 .55.45 1 1 1h26c.55 0 1-.45 1-1V5c0-.55-.45-1-1-1H3z" fill="#fff"/><path d="M7 6a1 1 0 01-1-1V1a1 1 0 012 0v4a1 1 0 01-1 1zM25 6a1 1 0 01-1-1V1a1 1 0 012 0v4a1 1 0 01-1 1zM23 25h-6a1 1 0 010-2h6a1 1 0 010 2zM23 15h-6a1 1 0 010-2h6a1 1 0 010 2zM9 27a.996.996 0 01-.707-.293l-3-3a1 1 0 111.414-1.414l2.185 2.185 3.509-4.679A1 1 0 1114 21l-4.2 5.601a1 1 0 01-.73.397C9.047 27 9.023 27 9 27zM9 16.6a.996.996 0 01-.707-.293l-3-3a1 1 0 111.414-1.414l2.185 2.185L12.4 9.4A1 1 0 1114 10.6l-4.2 5.6a1 1 0 01-.73.398L9 16.6z" fill="#fff"/></svg><svg fill="none" viewBox="0 0 34 34" id="paper" xmlns="http://www.w3.org/2000/svg"><path d="M15.943 34a1.06 1.06 0 01-1.042-1.27l1.063-5.313c.041-.206.142-.395.29-.543l10.81-10.81c1.521-1.524 4.218-1.526 5.74.002a4.066 4.066 0 01.008 5.751l-10.805 10.81c-.148.147-.338.249-.542.29l-5.313 1.062c-.07.014-.14.021-.209.021zm5.313-2.125h.014-.014zm-3.272-3.726l-.686 3.434 3.433-.687L31.31 20.315h.002a1.938 1.938 0 00.003-2.737c-.752-.75-2.02-.738-2.747-.011L17.984 28.149zM11.688 29.75h-8.5A3.191 3.191 0 010 26.562V3.188A3.191 3.191 0 013.188 0h21.25a3.191 3.191 0 013.187 3.188v9.562a1.063 1.063 0 01-2.125 0V3.187c0-.585-.477-1.062-1.062-1.062H3.188c-.586 0-1.063.477-1.063 1.063v23.375c0 .585.477 1.062 1.063 1.062h8.5a1.063 1.063 0 010 2.125z" fill="#fff"/><path d="M20.188 8.5h-8.5a1.063 1.063 0 010-2.125h8.5a1.063 1.063 0 010 2.125zM20.188 14.875H7.438a1.063 1.063 0 010-2.125h12.75a1.063 1.063 0 010 2.125zM18.063 21.25H7.438a1.063 1.063 0 010-2.125h10.625a1.063 1.063 0 010 2.125z" fill="#fff"/></svg><svg fill="none" viewBox="0 0 40 31" id="video" xmlns="http://www.w3.org/2000/svg"><path d="M35.6 23.4a1.2 1.2 0 01-1.2-1.2v-18c0-.662-.539-1.2-1.2-1.2H6.8c-.66 0-1.2.538-1.2 1.2v18a1.2 1.2 0 01-2.4 0v-18C3.2 2.215 4.816.6 6.8.6h26.4c1.984 0 3.6 1.615 3.6 3.6v18a1.2 1.2 0 01-1.2 1.2z" fill="#fff"/><path d="M33.2 30.6H6.8c-3.308 0-6-2.691-6-6v-2.4A1.2 1.2 0 012 21h13.866a1.2 1.2 0 011.042.605A3.568 3.568 0 0020 23.4c1.275 0 2.46-.687 3.092-1.795A1.2 1.2 0 0124.134 21H38a1.2 1.2 0 011.2 1.2v2.4c0 3.309-2.692 6-6 6zm-30-7.2v1.2c0 1.985 1.616 3.6 3.6 3.6h26.4c1.984 0 3.6-1.615 3.6-3.6v-1.2H24.78A5.977 5.977 0 0120 25.8a5.972 5.972 0 01-4.78-2.4H3.2zM17.697 17.4c-.442 0-.884-.115-1.28-.341a2.42 2.42 0 01-1.217-2.071V9.026a2.43 2.43 0 011.222-2.087 2.56 2.56 0 012.369-.094l5.582 2.635C25.35 9.906 26 10.9 26 12s-.651 2.095-1.658 2.534l-5.551 2.622c-.347.163-.72.244-1.094.244zm0-8.4a.165.165 0 00-.083.023l-.014 5.951.678 1.096-.512-1.085 5.583-2.635c.165-.072.251-.204.251-.35a.366.366 0 00-.22-.336l-5.614-2.649a.163.163 0 00-.07-.015z" fill="#fff"/></svg></svg>